<?xml version="1.0" encoding="UTF-8" standalone="no"?>
<svg
   xmlns:dc="http://purl.org/dc/elements/1.1/"
   xmlns:cc="http://creativecommons.org/ns#"
   xmlns:rdf="http://www.w3.org/1999/02/22-rdf-syntax-ns#"
   xmlns:svg="http://www.w3.org/2000/svg"
   xmlns="http://www.w3.org/2000/svg"
   xmlns:sodipodi="http://sodipodi.sourceforge.net/DTD/sodipodi-0.dtd"
   xmlns:inkscape="http://www.inkscape.org/namespaces/inkscape"
   version="1.1"
   id="svg2"
   xml:space="preserve"
   width="132.28387"
   height="132.2832"
   viewBox="0 0 132.28387 132.2832"
   sodipodi:docname="UPT_logo_FundoBranco.svg"
   inkscape:version="1.0.2 (e86c870879, 2021-01-15)"><metadata
     id="metadata8"><rdf:RDF><cc:Work
         rdf:about=""><dc:format>image/svg+xml</dc:format><dc:type
           rdf:resource="http://purl.org/dc/dcmitype/StillImage" /><dc:title></dc:title></cc:Work></rdf:RDF></metadata><defs
     id="defs6"><clipPath
       clipPathUnits="userSpaceOnUse"
       id="clipPath18"><path
         d="M 0,0 H 99.213 V 99.212 H 0 Z"
         id="path16" /></clipPath></defs><sodipodi:namedview
     pagecolor="#ffffff"
     bordercolor="#666666"
     borderopacity="1"
     objecttolerance="10"
     gridtolerance="10"
     guidetolerance="10"
     inkscape:pageopacity="0"
     inkscape:pageshadow="2"
     inkscape:window-width="1868"
     inkscape:window-height="1012"
     id="namedview4"
     showgrid="false"
     inkscape:zoom="4.4847915"
     inkscape:cx="87.334555"
     inkscape:cy="59.998164"
     inkscape:window-x="52"
     inkscape:window-y="39"
     inkscape:window-maximized="1"
     inkscape:current-layer="g24" /><g
     id="g10"
     inkscape:groupmode="layer"
     inkscape:label="UPT_logo_FundoBranco"
     transform="matrix(1.3333333,0,0,-1.3333333,0,132.2832)"><g
       id="g12"><g
         id="g14"
         clip-path="url(#clipPath18)"><g
           id="g20"
           transform="translate(49.627,94.0864)"><path
             d="m 0,0 c 16.974,0 30.713,-13.739 30.713,-30.714 0,-16.973 -13.739,-30.713 -30.713,-30.713 -16.973,0 -30.713,13.74 -30.713,30.713 C -30.713,-13.739 -16.973,0 0,0"
             style="fill:#82d5f6;fill-opacity:1;fill-rule:nonzero;stroke:none"
             id="path22" /></g><g
           id="g24"
           transform="translate(58.6797,51.8955)"><path
             d="m 0,0 v 0.97 c 2.263,0 3.395,0.971 3.395,2.263 v 19.236 h -3.88 v 1.132 h 15.839 v -5.496 h -0.967 c 0,2.101 -1.294,4.364 -3.719,4.364 H 6.627 V 3.233 c 0,-1.94 1.94,-2.263 3.394,-2.263 L 10.184,0 Z m -33.461,23.601 v -0.97 c 2.263,-0.162 3.395,-1.131 3.395,-2.425 V 6.79 c 0,-4.849 3.071,-7.275 9.213,-7.437 1.456,0 2.586,0.162 3.718,0.647 h 9.697 v 0.97 c -2.584,0 -4.686,0.647 -4.686,3.396 v 18.103 c 4.526,0 7.598,-1.293 7.759,-5.819 0,-3.88 -2.262,-5.658 -5.981,-5.981 v -0.647 c 5.334,0 9.375,1.455 9.214,6.79 0,3.717 -2.101,6.305 -7.112,6.789 h -10.669 v -1.132 c 2.101,0 3.557,-0.646 3.557,-2.263 V 2.91 c 0,-0.969 -3.072,-2.424 -5.497,-2.263 -3.717,0.485 -5.98,2.748 -5.98,5.981 v 13.578 c 0,1.94 1.939,2.263 3.556,2.263 v 1.132 z"
             style="fill:#ffffff;fill-opacity:1;fill-rule:nonzero;stroke:none"
             id="path26" /></g><g
           id="g28"
           transform="translate(3.3633,12.9209)"><path
             d="m 0,0 c 0.07,0.014 0.115,0.02 0.135,0.02 0.132,0 0.352,-0.013 0.657,-0.041 0.161,-0.004 0.271,-0.007 0.329,-0.007 0.086,0 0.268,0.007 0.546,0.022 l 0.999,0.062 c 0.262,0.022 0.567,0.035 0.916,0.035 0.614,0 1.103,-0.088 1.468,-0.263 0.363,-0.174 0.644,-0.446 0.842,-0.818 0.198,-0.372 0.297,-0.742 0.297,-1.112 0,-0.615 -0.215,-1.146 -0.647,-1.59 -0.431,-0.449 -1.011,-0.671 -1.74,-0.671 -0.203,0 -0.374,0.019 -0.511,0.061 -0.138,0.041 -0.294,0.12 -0.471,0.239 -0.074,0.05 -0.119,0.103 -0.135,0.16 0.016,0.025 0.038,0.046 0.065,0.056 0.055,0 0.111,-0.01 0.17,-0.036 0.134,-0.048 0.302,-0.072 0.506,-0.072 0.309,0 0.602,0.077 0.878,0.229 0.276,0.155 0.485,0.372 0.626,0.655 0.141,0.282 0.212,0.581 0.212,0.894 0,0.307 -0.075,0.604 -0.223,0.893 -0.149,0.287 -0.344,0.517 -0.585,0.69 -0.138,0.099 -0.347,0.181 -0.63,0.247 -0.282,0.068 -0.502,0.102 -0.658,0.102 -0.483,0 -0.771,-0.036 -0.861,-0.108 L 2.18,-0.435 2.197,-1.1 2.191,-1.218 C 2.184,-1.322 2.18,-1.485 2.18,-1.706 2.18,-2.507 2.191,-3.005 2.214,-3.2 V -3.529 L 2.288,-6.22 c 0,-0.039 -0.005,-0.112 -0.015,-0.218 -0.01,-0.105 -0.014,-0.198 -0.014,-0.276 0,-0.187 0.015,-0.332 0.047,-0.43 C 2.399,-7.171 2.672,-7.235 3.125,-7.338 3.336,-7.388 3.451,-7.417 3.47,-7.425 3.501,-7.437 3.529,-7.462 3.552,-7.5 3.536,-7.558 3.516,-7.596 3.49,-7.612 3.465,-7.63 3.415,-7.639 3.341,-7.639 c -0.047,0 -0.157,0.01 -0.328,0.032 -0.336,0.036 -0.6,0.052 -0.791,0.052 L 1.19,-7.607 0.575,-7.587 c -0.039,0 -0.153,-0.005 -0.341,-0.016 l -0.005,0.159 0.761,0.145 c 0.125,0.035 0.201,0.07 0.229,0.107 0.039,0.054 0.058,0.163 0.058,0.324 0,0.034 0.002,0.111 0.006,0.229 0.004,0.082 0.006,0.198 0.006,0.342 0,0.463 -0.018,1.451 -0.052,2.963 -0.013,0.707 -0.02,1.428 -0.02,2.157 v 0.101 c 0,0.282 -0.044,0.462 -0.13,0.535 -0.146,0.131 -0.511,0.236 -1.093,0.318 -0.019,0.044 -0.029,0.08 -0.029,0.11 0,0.031 0.01,0.069 0.035,0.113"
             style="fill:#231f20;fill-opacity:1;fill-rule:nonzero;stroke:none"
             id="path30" /></g><g
           id="g32"
           transform="translate(14.5088,5.499)"><path
             d="M 0,0 C 0.33,0 0.672,0.046 1.026,0.139 1.382,0.23 1.696,0.384 1.971,0.598 2.245,0.813 2.46,1.055 2.615,1.326 2.77,1.6 2.895,1.949 2.988,2.377 3.083,2.806 3.13,3.232 3.13,3.659 3.13,4.192 3.051,4.722 2.895,5.242 2.772,5.64 2.575,5.992 2.301,6.305 2.025,6.616 1.694,6.857 1.307,7.027 0.918,7.198 0.505,7.284 0.065,7.284 -0.291,7.284 -0.641,7.226 -0.981,7.107 -1.322,6.989 -1.604,6.841 -1.822,6.657 -2.042,6.476 -2.246,6.217 -2.435,5.882 -2.622,5.545 -2.766,5.177 -2.863,4.771 -2.962,4.367 -3.011,4.012 -3.011,3.701 c 0,-0.326 0.049,-0.694 0.148,-1.105 0.097,-0.411 0.231,-0.77 0.402,-1.073 0.171,-0.3 0.381,-0.569 0.63,-0.801 C -1.582,0.487 -1.303,0.31 -0.993,0.186 -0.684,0.063 -0.353,0 0,0 m -4.082,3.659 c 0,0.402 0.048,0.756 0.144,1.069 0.096,0.311 0.258,0.649 0.485,1.013 0.228,0.366 0.503,0.67 0.824,0.915 0.321,0.245 0.767,0.462 1.335,0.652 0.4,0.129 0.906,0.193 1.519,0.193 0.411,0 0.814,-0.055 1.209,-0.165 C 1.827,7.227 2.186,7.073 2.507,6.877 2.829,6.682 3.15,6.379 3.472,5.972 3.695,5.688 3.864,5.386 3.978,5.061 4.127,4.633 4.201,4.191 4.201,3.735 4.201,3.219 4.151,2.789 4.051,2.448 3.951,2.107 3.783,1.771 3.548,1.437 3.364,1.178 3.048,0.879 2.601,0.542 2.303,0.314 1.933,0.132 1.489,-0.008 1.046,-0.146 0.567,-0.217 0.054,-0.217 c -0.522,0 -0.987,0.062 -1.395,0.183 -0.408,0.121 -0.748,0.269 -1.02,0.443 -0.273,0.175 -0.553,0.434 -0.842,0.775 -0.288,0.34 -0.507,0.716 -0.655,1.129 -0.15,0.412 -0.224,0.861 -0.224,1.346"
             style="fill:#231f20;fill-opacity:1;fill-rule:nonzero;stroke:none"
             id="path34" /></g><g
           id="g36"
           transform="translate(21.7969,9.4297)"><path
             d="m 0,0 c 0.107,-0.004 0.187,-0.006 0.238,-0.006 0.285,0 0.615,0.033 0.988,0.101 C 1.487,0.146 1.699,0.229 1.861,0.344 2.024,0.458 2.16,0.628 2.269,0.854 2.378,1.081 2.433,1.315 2.433,1.559 2.433,1.822 2.348,2.104 2.177,2.4 2.046,2.627 1.825,2.816 1.514,2.969 1.202,3.12 0.829,3.196 0.393,3.196 0.285,3.196 0.147,3.19 -0.023,3.18 -0.039,2.977 -0.047,2.82 -0.047,2.711 L -0.018,1.616 -0.023,1.165 C -0.023,0.86 -0.016,0.473 0,0 m -2.169,-3.847 c 0.572,0.068 0.896,0.115 0.97,0.141 0.052,0.019 0.098,0.078 0.141,0.178 v 0.063 c 0,0.099 0.016,0.452 0.047,1.064 0.008,0.172 0.012,0.339 0.012,0.505 l -0.018,0.698 0.012,0.793 -0.006,1.472 0.006,1.058 c 0.004,0.445 -0.03,0.718 -0.102,0.815 -0.073,0.098 -0.26,0.167 -0.562,0.208 -0.302,0.041 -0.468,0.074 -0.499,0.091 -0.031,0.021 -0.047,0.051 -0.047,0.095 0,0.027 0.006,0.063 0.018,0.105 0.039,0.037 0.13,0.056 0.27,0.059 0.02,0 0.073,0.007 0.162,0.017 0.088,0.008 0.172,0.013 0.25,0.013 h 0.483 L 0.515,3.547 C 1.39,3.547 2.002,3.481 2.354,3.354 2.704,3.224 2.984,3.006 3.192,2.697 3.399,2.391 3.504,2.048 3.504,1.668 3.504,0.947 3.128,0.397 2.375,0.019 2.246,-0.05 2.145,-0.106 2.07,-0.158 2.203,-0.438 2.388,-0.776 2.625,-1.171 L 3.367,-2.444 C 3.664,-2.915 3.869,-3.209 3.982,-3.327 4.096,-3.446 4.233,-3.546 4.396,-3.624 4.558,-3.701 4.83,-3.775 5.213,-3.847 5.217,-3.886 5.22,-3.917 5.22,-3.938 5.22,-3.963 5.217,-3.991 5.213,-4.026 4.678,-4.033 4.05,-4.039 3.33,-4.039 c -0.051,0 -0.122,0.006 -0.212,0.013 -0.277,0.531 -0.604,1.115 -0.98,1.752 L 1.27,-0.693 C 1.151,-0.529 1.054,-0.428 0.978,-0.387 0.9,-0.346 0.8,-0.324 0.673,-0.324 L 0.171,-0.329 0.006,-0.324 C -0.006,-0.449 -0.012,-0.707 -0.012,-1.095 V -3.104 C -0.016,-3.18 0,-3.282 0.035,-3.416 0.065,-3.49 0.119,-3.551 0.194,-3.596 0.27,-3.641 0.487,-3.708 0.846,-3.799 l 0.238,-0.056 c 0.031,-0.04 0.047,-0.089 0.047,-0.156 -0.106,-0.017 -0.18,-0.028 -0.223,-0.028 -0.35,0 -0.598,0.003 -0.743,0.009 -0.073,0.003 -0.134,0.004 -0.182,0.004 l -0.796,-0.013 -0.777,0.007 c -0.035,0 -0.213,-0.007 -0.533,-0.02 l -0.116,0.026 -0.012,0.056 c 0,0.035 0.027,0.076 0.082,0.123"
             style="fill:#231f20;fill-opacity:1;fill-rule:nonzero;stroke:none"
             id="path38" /></g><g
           id="g40"
           transform="translate(26.877,12.0518)"><path
             d="M 0,0 0.244,0.889 C 0.26,1.006 0.281,1.081 0.308,1.114 0.335,1.147 0.366,1.164 0.401,1.164 0.472,1.164 0.552,1.08 0.641,0.91 0.707,0.789 0.763,0.711 0.806,0.679 0.849,0.646 0.911,0.622 0.994,0.61 L 1.053,0.616 1.305,0.593 2.691,0.574 4.33,0.58 h 0.482 l 0.91,0.019 c 0.04,0 0.089,-0.004 0.147,-0.013 C 6.136,0.563 6.3,0.552 6.362,0.552 c 0.059,0 0.106,0.018 0.141,0.057 0.013,0.015 0.077,0.146 0.194,0.389 0.051,0.111 0.115,0.166 0.19,0.166 0.031,0 0.07,-0.008 0.118,-0.022 C 7.024,1.063 7.034,0.993 7.034,0.932 L 7.028,0.697 7.034,0.201 c 0,-0.12 -0.01,-0.509 -0.029,-1.167 0,-0.043 -0.008,-0.081 -0.023,-0.116 C 6.938,-1.108 6.9,-1.122 6.869,-1.122 6.837,-1.122 6.81,-1.107 6.786,-1.079 6.762,-1.051 6.732,-0.96 6.697,-0.81 6.619,-0.461 6.522,-0.211 6.404,-0.06 6.326,0.037 6.214,0.106 6.067,0.149 5.921,0.192 5.57,0.213 5.016,0.213 H 4.025 C 4.018,0.058 4.014,-0.086 4.014,-0.216 l 0.047,-3.645 c 0,-0.147 -0.008,-0.419 -0.024,-0.824 L 4.043,-5.466 4.037,-5.899 c 0,-0.139 0.024,-0.237 0.07,-0.294 C 4.154,-6.253 4.282,-6.31 4.49,-6.363 4.852,-6.455 5.093,-6.51 5.215,-6.528 5.289,-6.537 5.35,-6.555 5.397,-6.58 V -6.77 L 4.561,-6.748 C 4.102,-6.745 3.756,-6.735 3.524,-6.722 L 2.665,-6.761 2.035,-6.794 c -0.177,0 -0.285,0.004 -0.324,0.013 l -0.083,0.033 c 0.009,0.09 0.026,0.145 0.054,0.172 0.027,0.023 0.099,0.045 0.217,0.059 0.166,0.025 0.361,0.067 0.584,0.126 0.224,0.061 0.372,0.123 0.443,0.186 0.039,0.035 0.066,0.095 0.082,0.178 0.036,0.172 0.054,0.51 0.054,1.016 v 1 L 3.037,-1.828 3.013,-1.356 3.007,0.213 H 2.061 C 1.495,0.213 1.152,0.18 1.03,0.111 0.838,0.006 0.553,-0.306 0.172,-0.819 0.045,-1.015 -0.065,-1.11 -0.161,-1.11 l -0.053,0.01 c -0.016,0.025 -0.024,0.045 -0.024,0.066 0,0.048 0.032,0.187 0.095,0.424 0.08,0.3 0.127,0.506 0.143,0.61"
             style="fill:#231f20;fill-opacity:1;fill-rule:nonzero;stroke:none"
             id="path42" /></g><g
           id="g44"
           transform="translate(37.498,12.9453)"><path
             d="m 0,0 c 0.02,-0.065 0.029,-0.115 0.029,-0.149 0,-0.025 -0.005,-0.059 -0.017,-0.106 -0.102,-0.025 -0.184,-0.04 -0.246,-0.04 -0.028,0 -0.074,0.003 -0.138,0.01 -0.064,0.006 -0.117,0.009 -0.155,0.009 -0.181,0 -0.324,-0.037 -0.429,-0.107 -0.07,-0.044 -0.113,-0.099 -0.129,-0.17 l -0.058,-0.671 0.017,-2.91 c 0.004,-1.065 0.039,-1.728 0.106,-1.99 0.066,-0.261 0.178,-0.475 0.335,-0.645 0.157,-0.168 0.393,-0.306 0.709,-0.417 0.316,-0.109 0.623,-0.165 0.92,-0.165 0.666,0 1.177,0.097 1.533,0.288 0.354,0.194 0.609,0.459 0.763,0.798 0.156,0.339 0.234,0.855 0.234,1.544 0,0.021 -0.007,0.177 -0.019,0.47 v 0.171 c 0,0.062 0.004,0.185 0.012,0.368 0.008,0.183 0.012,0.289 0.012,0.32 L 3.391,-1.703 C 3.363,-1.136 3.33,-0.8 3.293,-0.697 3.256,-0.597 3.201,-0.52 3.131,-0.469 2.978,-0.358 2.686,-0.261 2.256,-0.175 2.236,-0.119 2.225,-0.063 2.221,-0.005 2.374,0.012 2.526,0.019 2.676,0.019 2.833,0.019 2.999,0.013 3.172,0 3.432,-0.021 3.573,-0.029 3.598,-0.029 L 4.53,0.019 4.713,0.013 4.707,-0.223 C 4.224,-0.284 3.934,-0.358 3.839,-0.442 3.745,-0.526 3.698,-0.684 3.698,-0.909 c 0,-0.122 0.007,-0.388 0.023,-0.794 L 3.762,-2.921 3.757,-3.402 3.774,-4.015 C 3.774,-4.782 3.753,-5.306 3.709,-5.584 3.647,-5.973 3.558,-6.279 3.441,-6.507 3.326,-6.733 3.158,-6.938 2.94,-7.122 2.72,-7.304 2.426,-7.452 2.06,-7.57 1.693,-7.688 1.331,-7.748 0.975,-7.748 c -0.561,0 -0.965,0.04 -1.212,0.118 -0.451,0.138 -0.81,0.317 -1.076,0.534 -0.267,0.22 -0.451,0.441 -0.553,0.658 -0.137,0.292 -0.206,0.714 -0.206,1.271 v 0.405 l -0.018,1.647 0.018,1.327 v 0.892 c 0,0.228 -0.03,0.386 -0.094,0.477 -0.043,0.064 -0.105,0.095 -0.187,0.095 l -0.346,-0.007 c -0.258,0 -0.422,0.027 -0.492,0.083 -0.012,0.035 -0.018,0.066 -0.018,0.095 0,0.036 0.012,0.062 0.035,0.083 0.043,0.031 0.096,0.048 0.158,0.048 h 0.153 l 0.393,0.003 h 0.927 z"
             style="fill:#231f20;fill-opacity:1;fill-rule:nonzero;stroke:none"
             id="path46" /></g><g
           id="g48"
           transform="translate(49.5537,12.5908)"><path
             d="m 0,0 c 0.047,-0.3 0.07,-0.606 0.07,-0.924 0,-0.061 -0.002,-0.145 -0.007,-0.251 -0.053,-0.012 -0.095,-0.016 -0.124,-0.016 -0.021,0 -0.055,0.003 -0.098,0.01 -0.165,0.456 -0.434,0.807 -0.806,1.053 -0.372,0.245 -0.833,0.368 -1.382,0.368 -0.29,0 -0.535,-0.033 -0.735,-0.098 -0.354,-0.122 -0.662,-0.289 -0.93,-0.502 -0.266,-0.214 -0.492,-0.467 -0.676,-0.765 -0.184,-0.295 -0.331,-0.652 -0.438,-1.073 -0.107,-0.421 -0.161,-0.851 -0.161,-1.288 0,-0.838 0.127,-1.531 0.382,-2.077 0.255,-0.544 0.603,-0.935 1.047,-1.166 0.443,-0.235 0.89,-0.351 1.341,-0.351 l 0.277,0.007 c 0.313,0.039 0.527,0.075 0.64,0.11 0.286,0.082 0.523,0.18 0.709,0.291 0.187,0.111 0.368,0.27 0.547,0.474 0.179,0.201 0.331,0.438 0.456,0.709 l 0.073,0.022 c 0.019,0 0.048,-0.012 0.089,-0.035 C 0.27,-5.596 0.267,-5.655 0.263,-5.684 0.096,-6.345 -0.024,-6.797 -0.102,-7.039 c -0.061,-0.016 -0.139,-0.038 -0.234,-0.069 -0.458,-0.159 -1.071,-0.237 -1.84,-0.237 -0.619,0 -1.082,0.042 -1.389,0.126 -0.309,0.084 -0.643,0.215 -1.006,0.394 -0.363,0.179 -0.681,0.414 -0.955,0.707 -0.275,0.294 -0.497,0.663 -0.664,1.111 -0.169,0.447 -0.253,0.938 -0.253,1.464 0,0.5 0.066,0.939 0.199,1.313 0.134,0.373 0.34,0.751 0.618,1.133 0.278,0.383 0.606,0.702 0.984,0.956 0.378,0.255 0.798,0.435 1.261,0.54 0.325,0.073 0.786,0.107 1.382,0.107 0.434,0 0.845,-0.058 1.228,-0.172 C -0.387,0.221 -0.13,0.108 0,0"
             style="fill:#231f20;fill-opacity:1;fill-rule:nonzero;stroke:none"
             id="path50" /></g><g
           id="g52"
           transform="translate(52.9785,9.1211)"><path
             d="m 0,0 c 0.418,-0.022 0.894,-0.033 1.43,-0.033 0.303,0 0.572,0.01 0.801,0.027 C 2.193,0.146 2.146,0.286 2.098,0.418 1.843,1.091 1.701,1.461 1.675,1.53 L 1.14,2.869 1.081,2.976 C 1.058,2.928 0.972,2.729 0.824,2.377 0.575,1.773 0.395,1.306 0.286,0.969 0.235,0.817 0.184,0.668 0.129,0.52 0.074,0.37 0.04,0.267 0.026,0.206 0.013,0.146 -0.007,0.085 -0.035,0.023 Z m -2.8,-3.525 c 0.055,0.032 0.105,0.047 0.148,0.047 h 0.133 c 0.029,0 0.076,0.002 0.142,0.006 0.303,0.029 0.48,0.055 0.535,0.082 0.138,0.076 0.255,0.204 0.353,0.388 0.203,0.399 0.432,0.967 0.685,1.698 0.12,0.349 0.197,0.562 0.23,0.635 0.095,0.235 0.19,0.481 0.28,0.74 L 0.258,1.617 C 0.343,1.86 0.55,2.416 0.878,3.286 0.96,3.507 1.06,3.801 1.177,4.168 L 1.36,4.181 1.565,4.175 C 1.733,3.84 1.884,3.48 2.014,3.095 2.084,2.892 2.199,2.585 2.36,2.181 L 3.254,-0.243 3.729,-1.56 C 3.979,-2.307 4.145,-2.766 4.224,-2.938 4.302,-3.107 4.375,-3.221 4.44,-3.275 4.46,-3.292 4.534,-3.313 4.661,-3.347 4.788,-3.379 4.878,-3.401 4.929,-3.418 5.108,-3.467 5.233,-3.509 5.305,-3.543 5.32,-3.585 5.328,-3.616 5.328,-3.64 5.328,-3.657 5.322,-3.688 5.31,-3.725 5.185,-3.729 5.097,-3.729 5.046,-3.729 c -0.199,0 -0.552,0.002 -1.057,0.01 L 3.401,-3.71 2.689,-3.716 c -0.046,0 -0.093,0.002 -0.142,0.005 -0.05,0.003 -0.091,0.004 -0.127,0.004 H 2.291 c -0.043,0.005 -0.082,0.018 -0.117,0.036 0,0.058 0.01,0.11 0.028,0.163 0.046,0.025 0.089,0.038 0.127,0.042 l 0.606,0.042 c 0.158,0.008 0.278,0.029 0.36,0.066 0.023,0.071 0.036,0.125 0.036,0.16 0,0.07 -0.052,0.255 -0.153,0.552 -0.072,0.197 -0.132,0.384 -0.185,0.562 -0.055,0.179 -0.263,0.764 -0.626,1.756 -0.16,0.026 -0.302,0.042 -0.422,0.042 L 0.691,-0.299 0.322,-0.293 c -0.134,0 -0.278,-0.011 -0.439,-0.029 -0.05,-0.118 -0.083,-0.203 -0.099,-0.254 l -0.515,-1.625 c -0.218,-0.619 -0.33,-0.96 -0.33,-1.024 0,-0.036 0.02,-0.093 0.054,-0.176 0.083,-0.025 0.192,-0.045 0.329,-0.066 l 0.8,-0.07 c 0.044,-0.036 0.066,-0.068 0.066,-0.097 0,-0.019 -0.007,-0.051 -0.019,-0.091 -0.176,-0.004 -0.313,-0.004 -0.405,-0.004 -0.314,0 -0.678,0.014 -1.094,0.046 -0.192,0.008 -0.329,0.012 -0.411,0.012 -0.082,0 -0.225,-0.004 -0.429,-0.012 -0.134,-0.006 -0.229,-0.01 -0.288,-0.01 -0.095,0 -0.216,0.005 -0.365,0.016 v 0.037 c 0,0.029 0.008,0.067 0.023,0.115"
             style="fill:#231f20;fill-opacity:1;fill-rule:nonzero;stroke:none"
             id="path54" /></g><g
           id="g56"
           transform="translate(58.4619,5.3779)"><path
             d="M 0,0 C 0.004,0.06 0.02,0.11 0.047,0.157 0.352,0.239 0.648,0.294 0.938,0.321 1.131,0.337 1.254,0.38 1.31,0.451 1.348,0.502 1.372,0.69 1.38,1.016 L 1.421,2.566 1.414,3.618 1.421,4.993 V 5.357 C 1.425,6.186 1.421,6.7 1.409,6.903 1.405,6.942 1.389,6.998 1.361,7.068 1.259,7.115 1.172,7.146 1.103,7.162 1.034,7.179 0.725,7.234 0.175,7.333 0.171,7.377 0.169,7.409 0.169,7.43 c 0,0.023 0.002,0.055 0.006,0.095 0.074,0 0.197,-0.004 0.366,-0.012 L 1.438,7.479 1.96,7.466 2.113,7.473 c 0.021,0 0.076,-0.004 0.172,-0.014 0.233,0 0.366,0.002 0.403,0.007 L 3.16,7.501 C 3.479,7.501 3.704,7.495 3.834,7.484 3.83,7.415 3.815,7.342 3.793,7.262 3.749,7.253 3.545,7.241 3.18,7.229 2.813,7.215 2.604,7.191 2.55,7.16 2.459,7.109 2.414,6.952 2.414,6.689 2.414,6.626 2.41,6.499 2.402,6.308 V 5.953 L 2.408,4.864 V 4.493 L 2.42,2.544 2.402,0.885 2.408,0.52 c 0,-0.119 0.02,-0.192 0.06,-0.218 C 2.563,0.298 2.852,0.293 3.33,0.289 H 3.729 L 4.744,0.324 C 5.011,0.332 5.2,0.359 5.313,0.404 5.428,0.449 5.617,0.581 5.883,0.802 6.044,0.941 6.169,1.086 6.259,1.235 6.278,1.268 6.311,1.313 6.357,1.376 6.433,1.479 6.533,1.683 6.658,1.987 H 6.851 C 6.827,1.847 6.802,1.712 6.773,1.586 6.659,1.032 6.58,0.571 6.537,0.202 6.529,0.123 6.521,0.052 6.514,-0.016 L 4.316,0.05 C 2.43,0.05 1.31,0.035 0.958,0.01 0.848,0.003 0.731,0 0.61,0 Z"
             style="fill:#231f20;fill-opacity:1;fill-rule:nonzero;stroke:none"
             id="path58" /></g><g
           id="g60"
           transform="translate(65.585,5.5068)"><path
             d="m 0,0 c 0.039,0.035 0.073,0.058 0.101,0.064 0.066,0.02 0.18,0.037 0.34,0.047 0.383,0.025 0.62,0.059 0.709,0.107 0.056,0.077 0.082,0.187 0.082,0.328 L 1.229,0.957 1.232,2.449 1.222,3.154 1.229,4.629 1.199,6.304 C 1.195,6.702 1.17,6.928 1.122,6.979 1.052,7.054 0.843,7.097 0.494,7.107 0.345,7.111 0.214,7.123 0.101,7.145 0.05,7.17 0.023,7.206 0.023,7.249 0.023,7.28 0.034,7.317 0.054,7.361 0.089,7.382 0.12,7.392 0.146,7.392 0.202,7.392 0.27,7.39 0.348,7.386 0.578,7.36 0.816,7.35 1.064,7.35 L 1.499,7.36 2.534,7.336 c 0.518,0 0.921,0.009 1.211,0.024 0.29,0.016 0.486,0.026 0.588,0.026 0.09,0 0.313,-0.016 0.67,-0.042 L 5.838,7.35 5.938,7.331 6.426,7.35 6.483,7.319 C 6.504,7.287 6.518,7.254 6.524,7.22 6.524,7.164 6.517,7.08 6.499,6.968 6.481,6.854 6.473,6.782 6.473,6.755 6.473,6.349 6.485,6.004 6.514,5.723 6.51,5.698 6.498,5.684 6.479,5.676 6.437,5.676 6.396,5.682 6.363,5.692 6.32,5.768 6.263,5.898 6.189,6.086 6.117,6.273 6.009,6.49 5.864,6.737 5.766,6.901 5.689,6.999 5.635,7.03 5.58,7.062 5.466,7.078 5.294,7.078 5.259,7.078 5.08,7.082 4.759,7.091 4.673,7.095 4.589,7.097 4.507,7.097 L 2.832,7.062 H 2.686 C 2.47,7.062 2.341,7.033 2.298,6.979 2.231,6.886 2.198,6.609 2.198,6.153 c 0,-0.047 0.01,-0.514 0.03,-1.405 V 3.935 C 2.271,3.924 2.315,3.916 2.367,3.916 H 2.466 C 2.532,3.916 2.63,3.914 2.758,3.91 2.96,3.903 3.096,3.899 3.166,3.899 c 0.047,0 0.087,0.002 0.122,0.006 0.42,0.016 0.96,0.025 1.62,0.025 0.207,0.035 0.326,0.075 0.363,0.123 0.057,0.069 0.101,0.254 0.13,0.551 0.031,0.297 0.097,0.465 0.2,0.505 0.05,0 0.098,-0.009 0.142,-0.03 C 5.751,5.049 5.755,5.02 5.755,4.991 5.755,4.965 5.751,4.919 5.743,4.856 5.734,4.712 5.731,4.259 5.731,3.494 5.731,3.291 5.741,3.064 5.762,2.813 5.781,2.563 5.791,2.429 5.791,2.408 5.791,2.373 5.785,2.326 5.772,2.269 5.742,2.252 5.717,2.244 5.697,2.244 H 5.656 C 5.594,2.354 5.533,2.523 5.475,2.754 5.373,3.149 5.267,3.396 5.155,3.496 5.044,3.597 4.862,3.646 4.612,3.646 4.558,3.646 4.458,3.644 4.313,3.638 4.169,3.633 3.954,3.628 3.669,3.628 H 3.288 C 2.745,3.628 2.39,3.616 2.221,3.594 L 2.215,3.398 2.221,2.317 2.215,1.637 2.221,0.972 C 2.225,0.571 2.251,0.341 2.298,0.277 2.364,0.191 2.509,0.148 2.732,0.148 l 0.359,0.006 c 0.032,0 0.154,-0.003 0.368,-0.008 0.214,-0.005 0.478,-0.008 0.79,-0.008 0.757,0 1.261,0.031 1.512,0.095 0.251,0.066 0.457,0.179 0.62,0.344 0.163,0.165 0.367,0.521 0.614,1.065 0.073,0.162 0.148,0.241 0.221,0.241 0.035,0 0.074,-0.017 0.116,-0.048 C 7.221,1.446 7.157,1.19 7.143,1.068 7.1,0.793 7.075,0.514 7.066,0.227 c 0,-0.13 -0.03,-0.24 -0.092,-0.326 H 6.844 L 5.188,-0.115 4.446,-0.104 2.68,-0.127 H 1.961 c -0.09,0 -0.175,-0.002 -0.253,-0.005 -0.707,-0.03 -1.227,-0.045 -1.562,-0.045 -0.057,0 -0.098,0.01 -0.121,0.031 -0.02,0.018 -0.031,0.047 -0.031,0.086 z"
             style="fill:#231f20;fill-opacity:1;fill-rule:nonzero;stroke:none"
             id="path62" /></g><g
           id="g64"
           transform="translate(73.3643,12.6143)"><path
             d="m 0,0 -0.006,0.277 c 0.607,0 1.05,0.014 1.332,0.043 0.11,0.012 0.186,0.017 0.229,0.017 0.035,0 0.088,-0.004 0.158,-0.012 C 1.877,0.188 2.029,0.03 2.17,-0.146 2.201,-0.181 2.235,-0.22 2.274,-0.264 l 1.238,-1.37 0.176,-0.212 c 0.25,-0.295 0.477,-0.546 0.682,-0.753 0.205,-0.208 0.605,-0.64 1.196,-1.299 l 1.402,-1.56 C 7.104,-5.61 7.28,-5.802 7.495,-6.028 l 0.007,0.093 C 7.478,-5.389 7.465,-5.1 7.465,-5.067 l 0.024,0.352 -0.012,0.554 v 0.255 c 0,0.16 -0.011,0.657 -0.036,1.49 -0.002,0.114 -0.015,0.329 -0.038,0.645 -0.023,0.317 -0.035,0.594 -0.035,0.834 0,0.432 -0.025,0.684 -0.077,0.754 -0.037,0.051 -0.206,0.105 -0.51,0.161 C 6.709,-0.02 6.598,-0.008 6.445,0.013 6.266,0.021 6.16,0.029 6.128,0.041 6.096,0.054 6.063,0.086 6.032,0.141 6.04,0.202 6.058,0.262 6.086,0.314 6.191,0.347 6.297,0.361 6.399,0.361 6.511,0.361 6.647,0.348 6.813,0.319 6.978,0.291 7.125,0.277 7.256,0.277 c 0.182,0 0.465,0.009 0.848,0.03 0.218,0.011 0.369,0.018 0.452,0.018 H 8.657 L 8.645,0.146 C 8.582,0.117 8.495,0.102 8.385,0.096 8.273,0.089 8.172,0.072 8.077,0.045 7.936,0.002 7.851,-0.036 7.823,-0.066 7.729,-0.169 7.682,-0.272 7.682,-0.379 L 7.748,-2.236 7.796,-3.09 7.79,-3.337 7.826,-4.519 C 7.85,-5.325 7.86,-6.027 7.86,-6.624 7.86,-6.754 7.854,-7.033 7.839,-7.465 L 7.528,-7.487 C 7.392,-7.332 6.921,-6.837 6.117,-6.004 5.93,-5.812 5.803,-5.676 5.735,-5.597 L 5.232,-5.015 C 5.038,-4.798 4.911,-4.659 4.853,-4.602 4.794,-4.543 4.751,-4.5 4.725,-4.473 4.299,-3.984 3.747,-3.376 3.066,-2.646 2.884,-2.448 2.615,-2.143 2.26,-1.726 2.037,-1.464 1.896,-1.303 1.838,-1.242 1.779,-1.185 1.699,-1.117 1.598,-1.043 L 1.581,-1.242 c 0,-0.767 0.019,-1.821 0.057,-3.169 L 1.679,-6.359 C 1.683,-6.524 1.691,-6.685 1.708,-6.837 L 1.913,-6.885 C 2.285,-6.92 2.65,-6.973 3.012,-7.043 3.039,-7.065 3.063,-7.084 3.082,-7.096 L 3.076,-7.314 c -0.061,-0.02 -0.112,-0.031 -0.152,-0.031 -0.042,0 -0.095,0.004 -0.157,0.01 -0.386,0.026 -0.855,0.039 -1.41,0.039 -0.388,0 -0.731,-0.01 -1.027,-0.029 L 0.248,-7.332 c -0.034,0 -0.086,0.004 -0.152,0.013 l -0.005,0.172 0.152,0.068 0.277,0.041 c 0.246,0.035 0.425,0.075 0.54,0.118 0.074,0.027 0.133,0.068 0.181,0.124 0.043,0.273 0.065,0.669 0.065,1.192 0,0.246 -0.006,0.692 -0.018,1.341 V -3.46 L 1.275,-1.782 C 1.269,-1.034 1.243,-0.595 1.2,-0.461 1.177,-0.39 1.128,-0.326 1.053,-0.271 0.903,-0.165 0.709,-0.099 0.468,-0.07 0.227,-0.043 0.07,-0.02 0,0"
             style="fill:#231f20;fill-opacity:1;fill-rule:nonzero;stroke:none"
             id="path66" /></g><g
           id="g68"
           transform="translate(87.167,12.6592)"><path
             d="M 0,0 C 0.031,-0.26 0.047,-0.408 0.047,-0.447 L 0.022,-0.975 C 0.016,-1.198 0.006,-1.343 -0.006,-1.404 -0.041,-1.422 -0.069,-1.43 -0.093,-1.43 l -0.053,0.013 c -0.125,0.554 -0.336,0.956 -0.634,1.209 -0.299,0.253 -0.662,0.38 -1.092,0.38 -0.445,0 -0.811,-0.126 -1.096,-0.378 -0.285,-0.252 -0.428,-0.546 -0.428,-0.881 0,-0.256 0.1,-0.49 0.299,-0.702 0.2,-0.213 0.709,-0.532 1.53,-0.96 0.625,-0.329 1.072,-0.596 1.34,-0.802 0.271,-0.206 0.475,-0.443 0.612,-0.714 0.136,-0.27 0.205,-0.572 0.205,-0.905 0,-0.419 -0.11,-0.811 -0.326,-1.181 -0.217,-0.368 -0.51,-0.645 -0.878,-0.832 -0.368,-0.185 -0.856,-0.279 -1.462,-0.279 -0.528,0 -1.035,0.085 -1.521,0.254 -0.286,0.104 -0.461,0.186 -0.523,0.248 -0.063,0.064 -0.094,0.13 -0.094,0.2 0,0.043 0.004,0.098 0.011,0.164 0.053,0.463 0.082,0.844 0.085,1.142 0.008,0.184 0.021,0.292 0.041,0.323 0.014,0.027 0.044,0.041 0.086,0.041 0.034,0 0.062,-0.013 0.083,-0.038 0.021,-0.024 0.036,-0.072 0.044,-0.143 0.043,-0.483 0.265,-0.914 0.671,-1.293 0.4,-0.381 0.853,-0.573 1.359,-0.573 0.309,0 0.596,0.067 0.855,0.196 0.262,0.129 0.466,0.316 0.614,0.561 0.147,0.245 0.219,0.485 0.219,0.716 0,0.317 -0.11,0.608 -0.333,0.871 -0.222,0.264 -0.668,0.57 -1.34,0.922 -0.672,0.351 -1.11,0.608 -1.314,0.769 -0.33,0.262 -0.577,0.542 -0.742,0.835 -0.121,0.229 -0.183,0.495 -0.183,0.796 0,0.546 0.215,1.009 0.646,1.387 0.43,0.379 1.007,0.568 1.729,0.568 0.399,0 0.743,-0.045 1.033,-0.134 C -0.44,0.278 -0.223,0.162 0,0"
             style="fill:#231f20;fill-opacity:1;fill-rule:nonzero;stroke:none"
             id="path70" /></g><g
           id="g72"
           transform="translate(88.5527,5.5068)"><path
             d="M 0,0 C 0.039,0.035 0.073,0.058 0.101,0.064 0.168,0.084 0.281,0.101 0.442,0.111 0.824,0.136 1.061,0.17 1.15,0.218 1.206,0.295 1.233,0.405 1.233,0.546 L 1.228,0.957 1.233,2.449 1.223,3.154 1.228,4.629 1.199,6.304 C 1.195,6.702 1.169,6.928 1.123,6.979 1.052,7.054 0.843,7.097 0.494,7.107 0.346,7.111 0.214,7.123 0.101,7.145 0.05,7.17 0.023,7.206 0.023,7.249 0.023,7.28 0.034,7.317 0.054,7.361 0.089,7.382 0.12,7.392 0.146,7.392 0.202,7.392 0.27,7.39 0.348,7.386 0.579,7.36 0.817,7.35 1.063,7.35 L 1.5,7.36 2.534,7.336 c 0.518,0 0.921,0.009 1.211,0.024 0.29,0.016 0.485,0.026 0.589,0.026 0.089,0 0.312,-0.016 0.669,-0.042 L 5.838,7.35 5.938,7.331 6.426,7.35 6.483,7.319 C 6.504,7.287 6.519,7.254 6.525,7.22 6.525,7.164 6.518,7.08 6.5,6.968 6.48,6.854 6.473,6.782 6.473,6.755 6.473,6.349 6.486,6.004 6.514,5.723 6.51,5.698 6.498,5.684 6.478,5.676 6.436,5.676 6.396,5.682 6.363,5.692 6.32,5.768 6.263,5.898 6.188,6.086 6.117,6.273 6.009,6.49 5.864,6.737 5.766,6.901 5.688,6.999 5.635,7.03 5.58,7.062 5.467,7.078 5.294,7.078 5.259,7.078 5.081,7.082 4.76,7.091 4.673,7.095 4.589,7.097 4.507,7.097 L 2.832,7.062 H 2.686 C 2.47,7.062 2.341,7.033 2.298,6.979 2.23,6.886 2.198,6.609 2.198,6.153 c 0,-0.047 0.01,-0.514 0.03,-1.405 V 3.935 C 2.271,3.924 2.316,3.916 2.367,3.916 h 0.1 C 2.532,3.916 2.63,3.914 2.758,3.91 2.96,3.903 3.096,3.899 3.166,3.899 c 0.047,0 0.087,0.002 0.123,0.006 0.42,0.016 0.959,0.025 1.62,0.025 0.206,0.035 0.325,0.075 0.362,0.123 0.057,0.069 0.102,0.254 0.131,0.551 0.03,0.297 0.096,0.465 0.2,0.505 0.05,0 0.097,-0.009 0.141,-0.03 C 5.751,5.049 5.755,5.02 5.755,4.991 5.755,4.965 5.751,4.919 5.743,4.856 5.734,4.712 5.73,4.259 5.73,3.494 5.73,3.291 5.741,3.064 5.762,2.813 5.781,2.563 5.791,2.429 5.791,2.408 5.791,2.373 5.785,2.326 5.772,2.269 5.742,2.252 5.717,2.244 5.697,2.244 H 5.656 C 5.594,2.354 5.533,2.523 5.475,2.754 5.373,3.149 5.267,3.396 5.155,3.496 5.044,3.597 4.863,3.646 4.613,3.646 4.559,3.646 4.459,3.644 4.313,3.638 4.169,3.633 3.955,3.628 3.669,3.628 H 3.288 C 2.745,3.628 2.39,3.616 2.222,3.594 L 2.215,3.398 2.222,2.317 2.215,1.637 2.222,0.972 C 2.226,0.571 2.251,0.341 2.298,0.277 2.364,0.191 2.51,0.148 2.731,0.148 l 0.361,0.006 c 0.031,0 0.153,-0.003 0.367,-0.008 0.214,-0.005 0.477,-0.008 0.791,-0.008 0.757,0 1.26,0.031 1.511,0.095 0.251,0.066 0.458,0.179 0.62,0.344 0.163,0.165 0.367,0.521 0.614,1.065 0.074,0.162 0.148,0.241 0.222,0.241 0.034,0 0.073,-0.017 0.115,-0.048 C 7.221,1.446 7.157,1.19 7.143,1.068 7.101,0.793 7.075,0.514 7.066,0.227 c 0,-0.13 -0.03,-0.24 -0.092,-0.326 H 6.844 L 5.188,-0.115 4.447,-0.104 2.68,-0.127 H 1.961 c -0.09,0 -0.175,-0.002 -0.253,-0.005 -0.706,-0.03 -1.228,-0.045 -1.562,-0.045 -0.057,0 -0.098,0.01 -0.121,0.031 -0.02,0.018 -0.031,0.047 -0.031,0.086 z"
             style="fill:#231f20;fill-opacity:1;fill-rule:nonzero;stroke:none"
             id="path74" /></g><g
           id="g76"
           transform="translate(8.1787,24.9844)"><path
             d="m 0,0 c 0.02,-0.064 0.029,-0.114 0.029,-0.149 0,-0.024 -0.005,-0.059 -0.017,-0.104 -0.102,-0.026 -0.184,-0.041 -0.246,-0.041 -0.028,0 -0.074,0.003 -0.138,0.01 -0.065,0.006 -0.116,0.009 -0.155,0.009 -0.18,0 -0.324,-0.037 -0.429,-0.108 -0.07,-0.043 -0.113,-0.098 -0.129,-0.17 l -0.059,-0.671 0.018,-2.91 c 0.004,-1.064 0.039,-1.728 0.105,-1.99 0.067,-0.261 0.179,-0.475 0.335,-0.644 0.158,-0.169 0.394,-0.306 0.709,-0.417 0.316,-0.11 0.623,-0.165 0.921,-0.165 0.666,0 1.177,0.096 1.533,0.288 0.354,0.194 0.609,0.458 0.764,0.797 0.154,0.34 0.232,0.856 0.232,1.544 0,0.021 -0.006,0.177 -0.018,0.471 v 0.172 c 0,0.061 0.005,0.183 0.012,0.366 0.009,0.184 0.011,0.289 0.011,0.321 L 3.391,-1.702 C 3.362,-1.135 3.33,-0.8 3.293,-0.696 c -0.037,0.1 -0.092,0.177 -0.162,0.228 -0.154,0.111 -0.446,0.208 -0.875,0.294 -0.02,0.056 -0.031,0.111 -0.035,0.169 0.153,0.017 0.305,0.024 0.455,0.024 0.157,0 0.323,-0.005 0.496,-0.018 0.26,-0.021 0.401,-0.029 0.425,-0.029 L 4.53,0.019 4.713,0.014 4.708,-0.222 C 4.223,-0.283 3.934,-0.357 3.839,-0.441 3.745,-0.525 3.697,-0.683 3.697,-0.908 c 0,-0.122 0.008,-0.388 0.024,-0.794 L 3.763,-2.921 3.757,-3.401 3.774,-4.013 C 3.774,-4.781 3.752,-5.305 3.71,-5.583 3.646,-5.972 3.558,-6.278 3.442,-6.507 3.326,-6.732 3.158,-6.938 2.938,-7.12 2.72,-7.303 2.427,-7.452 2.06,-7.569 1.693,-7.688 1.331,-7.746 0.975,-7.746 c -0.561,0 -0.965,0.038 -1.212,0.117 -0.451,0.138 -0.81,0.316 -1.077,0.534 -0.266,0.22 -0.45,0.441 -0.551,0.658 -0.138,0.291 -0.206,0.713 -0.206,1.27 v 0.405 l -0.019,1.647 0.019,1.329 v 0.891 c 0,0.228 -0.032,0.386 -0.094,0.476 -0.043,0.064 -0.106,0.096 -0.189,0.096 l -0.345,-0.006 c -0.258,0 -0.422,0.027 -0.492,0.083 -0.012,0.034 -0.018,0.066 -0.018,0.094 0,0.036 0.012,0.062 0.035,0.083 0.043,0.03 0.096,0.047 0.158,0.047 h 0.153 l 0.393,0.004 h 0.928 z"
             style="fill:#231f20;fill-opacity:1;fill-rule:nonzero;stroke:none"
             id="path78" /></g><g
           id="g80"
           transform="translate(13.4297,24.6543)"><path
             d="m 0,0 -0.006,0.276 c 0.607,0 1.051,0.015 1.332,0.044 0.11,0.011 0.186,0.018 0.229,0.018 0.035,0 0.088,-0.005 0.158,-0.013 C 1.877,0.188 2.029,0.03 2.17,-0.146 2.201,-0.181 2.236,-0.221 2.275,-0.263 L 3.512,-1.635 3.688,-1.846 C 3.938,-2.141 4.165,-2.392 4.37,-2.6 4.575,-2.808 4.975,-3.239 5.568,-3.898 l 1.401,-1.56 c 0.135,-0.153 0.311,-0.344 0.527,-0.57 l 0.006,0.092 c -0.024,0.547 -0.037,0.835 -0.037,0.869 l 0.024,0.352 -0.012,0.555 v 0.254 c 0,0.161 -0.011,0.657 -0.035,1.49 -0.003,0.113 -0.016,0.329 -0.039,0.645 -0.023,0.316 -0.035,0.594 -0.035,0.833 0,0.433 -0.025,0.684 -0.077,0.755 -0.036,0.051 -0.206,0.106 -0.51,0.161 C 6.709,-0.02 6.598,-0.008 6.445,0.013 6.266,0.021 6.16,0.029 6.128,0.041 6.096,0.054 6.063,0.085 6.032,0.141 6.04,0.202 6.058,0.261 6.086,0.314 6.192,0.347 6.297,0.361 6.4,0.361 6.512,0.361 6.649,0.348 6.813,0.318 6.978,0.291 7.125,0.276 7.255,0.276 c 0.183,0 0.466,0.011 0.849,0.031 0.218,0.011 0.369,0.018 0.452,0.018 H 8.657 L 8.645,0.146 C 8.582,0.117 8.495,0.101 8.385,0.095 8.274,0.089 8.172,0.071 8.078,0.045 7.936,0.001 7.851,-0.035 7.823,-0.066 7.729,-0.169 7.682,-0.272 7.682,-0.379 L 7.748,-2.236 7.796,-3.09 7.79,-3.337 7.826,-4.52 c 0.025,-0.806 0.036,-1.507 0.036,-2.105 0,-0.129 -0.008,-0.408 -0.024,-0.841 L 7.528,-7.488 C 7.392,-7.332 6.922,-6.837 6.117,-6.004 5.93,-5.811 5.804,-5.677 5.737,-5.598 L 5.233,-5.015 C 5.038,-4.799 4.912,-4.66 4.854,-4.602 4.795,-4.543 4.752,-4.5 4.725,-4.473 4.299,-3.984 3.746,-3.377 3.067,-2.646 2.884,-2.448 2.615,-2.144 2.26,-1.727 2.037,-1.464 1.896,-1.302 1.838,-1.243 1.779,-1.185 1.7,-1.117 1.598,-1.043 L 1.581,-1.242 c 0,-0.767 0.02,-1.822 0.057,-3.168 L 1.679,-6.359 C 1.683,-6.524 1.692,-6.685 1.708,-6.837 L 1.913,-6.885 C 2.285,-6.92 2.651,-6.973 3.012,-7.044 3.039,-7.065 3.063,-7.084 3.083,-7.095 L 3.076,-7.314 C 3.014,-7.335 2.964,-7.345 2.925,-7.345 c -0.043,0 -0.096,0.003 -0.158,0.01 -0.385,0.025 -0.855,0.039 -1.409,0.039 -0.389,0 -0.732,-0.011 -1.028,-0.029 L 0.248,-7.332 c -0.035,0 -0.085,0.005 -0.151,0.013 l -0.006,0.172 0.152,0.069 0.277,0.041 c 0.246,0.034 0.426,0.073 0.54,0.117 0.074,0.027 0.134,0.068 0.181,0.124 0.043,0.273 0.066,0.669 0.066,1.192 0,0.246 -0.007,0.692 -0.019,1.34 V -3.46 L 1.276,-1.782 C 1.269,-1.034 1.243,-0.595 1.2,-0.461 1.177,-0.39 1.128,-0.326 1.053,-0.271 0.904,-0.166 0.709,-0.098 0.468,-0.07 0.227,-0.044 0.071,-0.02 0,0"
             style="fill:#231f20;fill-opacity:1;fill-rule:nonzero;stroke:none"
             id="path82" /></g><g
           id="g84"
           transform="translate(22.8145,17.6211)"><path
             d="M 0,0 C 0.086,0.034 0.174,0.056 0.265,0.063 0.866,0.103 1.21,0.174 1.297,0.277 1.383,0.383 1.426,0.888 1.426,1.792 L 1.42,2.412 V 3.063 L 1.397,3.776 1.408,4.195 1.402,4.656 V 5.199 L 1.391,5.441 1.402,5.748 C 1.406,5.819 1.408,5.902 1.408,5.996 1.408,6.244 1.397,6.507 1.373,6.782 1.357,6.838 1.336,6.891 1.309,6.941 1.163,7.017 0.928,7.066 0.604,7.093 0.279,7.117 0.096,7.146 0.053,7.179 0.021,7.201 0.003,7.262 0,7.358 H 0.495 L 2.057,7.311 c 0.4,0 0.934,0.015 1.603,0.047 C 3.66,7.297 3.656,7.237 3.648,7.185 3.569,7.163 3.438,7.143 3.254,7.118 2.882,7.075 2.653,7.033 2.572,6.994 2.521,6.977 2.483,6.941 2.46,6.895 2.42,6.823 2.398,6.691 2.39,6.499 L 2.359,5.739 2.383,3.116 V 2.079 C 2.376,1.752 2.372,1.531 2.372,1.413 2.372,0.975 2.383,0.691 2.404,0.569 2.426,0.448 2.464,0.36 2.518,0.31 2.571,0.256 2.66,0.213 2.783,0.182 2.966,0.139 3.109,0.114 3.212,0.11 3.435,0.104 3.576,0.07 3.636,0.017 3.648,-0.034 3.653,-0.078 3.653,-0.113 V -0.16 C 3.294,-0.173 3.029,-0.179 2.859,-0.179 c -0.098,0 -0.274,0.005 -0.526,0.018 L 1.516,-0.173 0.124,-0.168 H 0.012 Z"
             style="fill:#231f20;fill-opacity:1;fill-rule:nonzero;stroke:none"
             id="path86" /></g><g
           id="g88"
           transform="translate(26.7256,24.8945)"><path
             d="m 0,0 0.041,0.099 c 0.317,0 0.636,-0.004 0.954,-0.013 h 0.194 c 0.059,0 0.124,0.002 0.195,0.006 0.255,0.012 0.717,0.016 1.384,0.016 0.133,0 0.263,-0.001 0.389,-0.003 C 3.282,0.104 3.404,0.101 3.522,0.097 3.546,0.083 3.563,0.063 3.575,0.037 L 3.563,-0.066 C 3.54,-0.109 3.481,-0.132 3.387,-0.132 H 3.339 C 3.229,-0.128 3.049,-0.137 2.797,-0.157 2.546,-0.18 2.382,-0.22 2.303,-0.277 2.252,-0.32 2.227,-0.378 2.227,-0.447 c 0,-0.154 0.064,-0.382 0.194,-0.687 L 3.313,-3.2 3.624,-3.886 c 0.301,-0.725 0.599,-1.468 0.893,-2.224 0.031,-0.082 0.06,-0.158 0.087,-0.224 l 0.394,0.96 c 0.203,0.484 0.408,1 0.616,1.548 l 0.405,1.099 c 0.007,0.025 0.03,0.102 0.065,0.236 0.379,1.033 0.569,1.687 0.569,1.962 0,0.057 -0.027,0.117 -0.08,0.177 -0.052,0.061 -0.138,0.112 -0.256,0.151 -0.046,0.014 -0.2,0.038 -0.459,0.069 l -0.436,0.06 C 5.387,-0.029 5.369,0.008 5.369,0.037 l 0.018,0.054 1.908,0.017 h 0.63 c 0.213,0 0.357,-0.012 0.436,-0.04 L 8.367,0.022 C 8.367,-0.009 8.355,-0.049 8.332,-0.099 8.237,-0.13 8.15,-0.147 8.072,-0.155 7.742,-0.196 7.538,-0.246 7.459,-0.302 7.381,-0.357 7.298,-0.477 7.212,-0.658 L 5.673,-4.465 C 5.194,-5.608 4.853,-6.496 4.649,-7.125 L 4.48,-7.634 C 4.43,-7.665 4.387,-7.681 4.352,-7.681 c -0.051,0 -0.106,0.004 -0.164,0.012 -0.466,1.202 -0.845,2.132 -1.138,2.787 L 1.257,-0.816 C 1.128,-0.563 1.031,-0.412 0.966,-0.36 0.901,-0.311 0.675,-0.237 0.288,-0.145 0.15,-0.112 0.073,-0.095 0.059,-0.087 0.03,-0.066 0.011,-0.039 0,0"
             style="fill:#231f20;fill-opacity:1;fill-rule:nonzero;stroke:none"
             id="path90" /></g><g
           id="g92"
           transform="translate(35.2598,17.5459)"><path
             d="m 0,0 c 0.039,0.035 0.073,0.058 0.101,0.064 0.067,0.02 0.18,0.038 0.342,0.048 0.381,0.025 0.619,0.06 0.708,0.107 0.056,0.078 0.083,0.186 0.083,0.329 L 1.229,0.958 1.234,2.45 1.223,3.155 1.229,4.63 1.199,6.305 C 1.195,6.703 1.17,6.929 1.123,6.979 1.053,7.054 0.843,7.098 0.494,7.108 0.346,7.112 0.215,7.124 0.101,7.145 0.05,7.172 0.024,7.206 0.024,7.25 c 0,0.031 0.01,0.068 0.03,0.111 C 0.089,7.382 0.12,7.392 0.147,7.392 0.203,7.392 0.27,7.39 0.348,7.386 0.579,7.361 0.818,7.35 1.064,7.35 L 1.5,7.361 2.534,7.337 c 0.518,0 0.921,0.009 1.211,0.024 0.29,0.016 0.487,0.025 0.588,0.025 0.091,0 0.313,-0.015 0.671,-0.042 L 5.838,7.35 5.938,7.331 6.426,7.35 6.484,7.319 C 6.504,7.288 6.518,7.256 6.525,7.222 6.525,7.165 6.517,7.081 6.499,6.968 6.482,6.854 6.473,6.783 6.473,6.757 6.473,6.351 6.486,6.005 6.514,5.724 6.51,5.699 6.498,5.685 6.479,5.677 6.437,5.677 6.398,5.683 6.363,5.693 6.32,5.769 6.263,5.898 6.19,6.086 6.117,6.274 6.009,6.491 5.864,6.738 5.766,6.902 5.689,7 5.635,7.031 5.58,7.064 5.467,7.078 5.295,7.078 5.259,7.078 5.081,7.082 4.76,7.091 4.674,7.095 4.59,7.097 4.507,7.097 L 2.833,7.062 H 2.687 C 2.471,7.062 2.341,7.033 2.299,6.979 2.232,6.887 2.198,6.61 2.198,6.153 2.198,6.106 2.208,5.64 2.228,4.748 V 3.936 C 2.271,3.924 2.317,3.917 2.367,3.917 h 0.1 C 2.532,3.917 2.63,3.915 2.758,3.911 2.961,3.903 3.097,3.9 3.166,3.9 c 0.047,0 0.088,10e-4 0.123,0.005 0.419,0.017 0.959,0.025 1.62,0.025 0.206,0.035 0.326,0.076 0.362,0.124 0.058,0.069 0.102,0.254 0.131,0.55 0.031,0.298 0.096,0.466 0.2,0.505 0.05,0 0.097,-0.007 0.141,-0.029 C 5.752,5.05 5.756,5.021 5.756,4.992 5.756,4.966 5.752,4.92 5.743,4.857 5.735,4.712 5.732,4.259 5.732,3.495 5.732,3.292 5.741,3.064 5.762,2.814 5.781,2.564 5.791,2.43 5.791,2.409 5.791,2.374 5.786,2.327 5.773,2.27 5.742,2.252 5.717,2.244 5.697,2.244 H 5.656 C 5.594,2.354 5.533,2.524 5.475,2.756 5.373,3.15 5.267,3.397 5.155,3.497 5.044,3.598 4.863,3.646 4.613,3.646 4.559,3.646 4.459,3.645 4.314,3.639 4.17,3.633 3.954,3.63 3.67,3.63 H 3.288 C 2.745,3.63 2.39,3.617 2.222,3.595 L 2.216,3.399 2.222,2.317 2.216,1.637 2.222,0.974 C 2.226,0.572 2.251,0.342 2.298,0.278 2.364,0.192 2.51,0.149 2.732,0.149 l 0.36,0.006 c 0.031,0 0.153,-0.004 0.367,-0.009 0.214,-0.005 0.478,-0.008 0.791,-0.008 0.757,0 1.26,0.031 1.511,0.096 0.251,0.067 0.458,0.179 0.62,0.344 0.163,0.164 0.367,0.521 0.614,1.065 0.074,0.161 0.148,0.241 0.221,0.241 0.036,0 0.074,-0.017 0.117,-0.048 C 7.222,1.446 7.158,1.191 7.143,1.069 7.101,0.794 7.075,0.514 7.067,0.228 c 0,-0.13 -0.031,-0.24 -0.093,-0.326 H 6.844 L 5.189,-0.115 4.447,-0.104 2.68,-0.126 H 1.962 c -0.091,0 -0.175,-0.002 -0.254,-0.006 -0.706,-0.028 -1.226,-0.044 -1.561,-0.044 -0.058,0 -0.098,0.01 -0.12,0.03 -0.022,0.019 -0.033,0.048 -0.033,0.087 z"
             style="fill:#231f20;fill-opacity:1;fill-rule:nonzero;stroke:none"
             id="path94" /></g><g
           id="g96"
           transform="translate(45.3877,21.4697)"><path
             d="m 0,0 c 0.106,-0.004 0.186,-0.006 0.237,-0.006 0.285,0 0.615,0.033 0.988,0.101 C 1.486,0.146 1.698,0.228 1.86,0.343 2.023,0.457 2.159,0.628 2.268,0.854 2.377,1.081 2.432,1.315 2.432,1.558 2.432,1.822 2.347,2.104 2.176,2.4 2.045,2.626 1.824,2.815 1.513,2.969 1.201,3.12 0.828,3.196 0.392,3.196 0.285,3.196 0.146,3.19 -0.024,3.181 -0.04,2.977 -0.048,2.819 -0.048,2.71 L -0.019,1.615 -0.024,1.165 C -0.024,0.86 -0.017,0.474 0,0 m -2.17,-3.847 c 0.572,0.068 0.896,0.115 0.971,0.141 0.051,0.019 0.097,0.078 0.14,0.177 v 0.064 c 0,0.099 0.016,0.451 0.047,1.064 0.008,0.172 0.012,0.338 0.012,0.504 l -0.018,0.7 0.012,0.792 -0.006,1.472 0.006,1.057 C -1.001,2.57 -1.036,2.843 -1.108,2.939 -1.181,3.038 -1.368,3.107 -1.67,3.148 -1.971,3.189 -2.138,3.221 -2.169,3.239 -2.2,3.26 -2.216,3.29 -2.216,3.333 c 0,0.028 0.006,0.063 0.018,0.106 0.039,0.037 0.129,0.055 0.27,0.059 0.02,0 0.074,0.005 0.162,0.016 0.088,0.008 0.171,0.013 0.25,0.013 h 0.483 L 0.514,3.546 C 1.389,3.546 2.002,3.482 2.353,3.353 2.704,3.224 2.983,3.004 3.191,2.697 3.399,2.391 3.503,2.046 3.503,1.667 3.503,0.946 3.127,0.396 2.374,0.019 2.245,-0.05 2.143,-0.107 2.07,-0.158 2.202,-0.438 2.388,-0.776 2.625,-1.171 l 0.741,-1.274 c 0.297,-0.47 0.502,-0.764 0.614,-0.882 0.115,-0.119 0.252,-0.219 0.415,-0.297 0.163,-0.077 0.435,-0.151 0.818,-0.223 0.004,-0.039 0.006,-0.07 0.006,-0.091 0,-0.026 -0.002,-0.053 -0.006,-0.088 -0.536,-0.008 -1.164,-0.013 -1.884,-0.013 -0.051,0 -0.121,0.005 -0.212,0.013 -0.277,0.53 -0.604,1.113 -0.979,1.752 l -0.87,1.581 C 1.15,-0.529 1.054,-0.428 0.977,-0.387 0.899,-0.346 0.799,-0.324 0.672,-0.324 L 0.171,-0.331 0.005,-0.324 C -0.007,-0.45 -0.013,-0.707 -0.013,-1.096 V -3.104 C -0.017,-3.18 -0.001,-3.282 0.034,-3.417 0.065,-3.49 0.118,-3.551 0.193,-3.596 0.268,-3.641 0.486,-3.709 0.846,-3.799 L 1.083,-3.855 C 1.114,-3.895 1.13,-3.945 1.13,-4.011 1.024,-4.029 0.95,-4.04 0.908,-4.04 c -0.351,0 -0.599,0.003 -0.743,0.01 -0.074,0.002 -0.136,0.004 -0.182,0.004 l -0.796,-0.014 -0.778,0.008 c -0.035,0 -0.213,-0.008 -0.532,-0.02 l -0.117,0.025 -0.012,0.057 c 0,0.035 0.027,0.077 0.082,0.123"
             style="fill:#231f20;fill-opacity:1;fill-rule:nonzero;stroke:none"
             id="path98" /></g><g
           id="g100"
           transform="translate(55.0684,24.6992)"><path
             d="M 0,0 C 0.032,-0.26 0.048,-0.408 0.048,-0.448 L 0.023,-0.975 C 0.017,-1.198 0.007,-1.343 -0.005,-1.405 -0.04,-1.422 -0.068,-1.429 -0.092,-1.429 l -0.052,0.011 c -0.125,0.555 -0.336,0.957 -0.635,1.21 -0.299,0.253 -0.663,0.381 -1.093,0.381 -0.444,0 -0.811,-0.127 -1.095,-0.379 -0.285,-0.253 -0.429,-0.546 -0.429,-0.881 0,-0.255 0.101,-0.489 0.3,-0.702 0.2,-0.213 0.709,-0.532 1.529,-0.961 0.625,-0.327 1.072,-0.596 1.34,-0.801 0.272,-0.206 0.476,-0.443 0.613,-0.714 0.135,-0.269 0.205,-0.572 0.205,-0.905 0,-0.419 -0.109,-0.811 -0.326,-1.182 -0.218,-0.368 -0.51,-0.645 -0.878,-0.83 -0.368,-0.186 -0.856,-0.28 -1.462,-0.28 -0.529,0 -1.036,0.085 -1.522,0.254 -0.285,0.104 -0.461,0.186 -0.522,0.247 -0.064,0.065 -0.094,0.13 -0.094,0.201 0,0.043 0.004,0.099 0.011,0.165 0.054,0.462 0.081,0.843 0.085,1.141 0.008,0.183 0.021,0.293 0.041,0.323 0.014,0.028 0.043,0.041 0.086,0.041 0.034,0 0.062,-0.012 0.083,-0.038 0.021,-0.024 0.035,-0.072 0.043,-0.143 0.043,-0.484 0.267,-0.914 0.671,-1.294 0.4,-0.38 0.854,-0.572 1.359,-0.572 0.311,0 0.596,0.066 0.856,0.196 0.262,0.128 0.466,0.316 0.614,0.561 0.146,0.245 0.22,0.484 0.22,0.716 0,0.317 -0.111,0.607 -0.335,0.871 -0.221,0.264 -0.668,0.57 -1.34,0.922 -0.671,0.351 -1.109,0.607 -1.313,0.768 -0.33,0.264 -0.577,0.543 -0.742,0.836 -0.122,0.229 -0.184,0.495 -0.184,0.795 0,0.547 0.216,1.009 0.646,1.388 0.431,0.379 1.007,0.568 1.729,0.568 0.4,0 0.744,-0.044 1.033,-0.134 C -0.438,0.277 -0.222,0.161 0,0"
             style="fill:#231f20;fill-opacity:1;fill-rule:nonzero;stroke:none"
             id="path102" /></g><g
           id="g104"
           transform="translate(56.4189,17.6211)"><path
             d="m 0,0 c 0.086,0.034 0.175,0.056 0.266,0.063 0.6,0.04 0.945,0.111 1.031,0.214 0.087,0.106 0.13,0.611 0.13,1.515 L 1.421,2.412 V 3.063 L 1.396,3.776 1.409,4.195 1.401,4.656 v 0.543 l -0.01,0.242 0.01,0.307 C 1.407,5.819 1.409,5.902 1.409,5.996 1.409,6.244 1.396,6.507 1.373,6.782 1.356,6.838 1.336,6.891 1.309,6.941 1.163,7.017 0.929,7.066 0.604,7.093 0.28,7.117 0.097,7.146 0.053,7.179 0.021,7.201 0.004,7.262 0,7.358 H 0.495 L 2.057,7.311 c 0.4,0 0.935,0.015 1.603,0.047 C 3.66,7.297 3.656,7.237 3.647,7.185 3.569,7.163 3.438,7.143 3.255,7.118 2.882,7.075 2.654,7.033 2.572,6.994 2.521,6.977 2.482,6.941 2.46,6.895 2.421,6.823 2.396,6.691 2.39,6.499 L 2.359,5.739 2.384,3.116 V 2.079 C 2.376,1.752 2.372,1.531 2.372,1.413 2.372,0.975 2.383,0.691 2.405,0.569 2.427,0.448 2.465,0.36 2.519,0.31 2.571,0.256 2.66,0.213 2.783,0.182 2.966,0.139 3.108,0.114 3.213,0.11 3.436,0.104 3.576,0.07 3.636,0.017 3.646,-0.034 3.653,-0.078 3.653,-0.113 V -0.16 C 3.294,-0.173 3.03,-0.179 2.859,-0.179 c -0.097,0 -0.273,0.005 -0.526,0.018 L 1.516,-0.173 0.124,-0.168 H 0.012 Z"
             style="fill:#231f20;fill-opacity:1;fill-rule:nonzero;stroke:none"
             id="path106" /></g><g
           id="g108"
           transform="translate(63.5635,17.7998)"><path
             d="m 0,0 c 0.298,-0.103 0.6,-0.152 0.905,-0.152 0.397,0 0.784,0.061 1.164,0.184 0.381,0.123 0.718,0.297 1.01,0.524 0.292,0.223 0.53,0.478 0.72,0.761 0.188,0.286 0.322,0.539 0.4,0.767 0.11,0.332 0.164,0.767 0.164,1.298 0,0.51 -0.107,1.024 -0.323,1.551 C 3.892,5.297 3.629,5.644 3.255,5.978 2.881,6.31 2.438,6.553 1.929,6.707 1.419,6.861 0.868,6.938 0.275,6.938 -0.132,6.938 -0.434,6.894 -0.629,6.805 -0.652,6.78 -0.676,6.753 -0.7,6.723 c -0.025,-0.1 -0.034,-0.19 -0.034,-0.272 0,-0.051 0.001,-0.11 0.005,-0.18 0.012,-0.456 0.017,-0.82 0.017,-1.092 L -0.717,3.847 C -0.717,1.889 -0.682,0.8 -0.608,0.578 -0.536,0.357 -0.333,0.164 0,0 m -2.993,-0.244 c 0.144,0.06 0.312,0.101 0.506,0.12 0.279,0.032 0.486,0.1 0.624,0.2 0.105,0.217 0.159,0.767 0.159,1.651 v 0.928 l 0.012,0.561 -0.012,0.41 0.012,0.762 L -1.71,6.3 c 0,0.216 -0.032,0.356 -0.096,0.424 -0.09,0.097 -0.33,0.187 -0.718,0.27 -0.164,0.035 -0.26,0.069 -0.295,0.098 -0.035,0.026 -0.057,0.082 -0.065,0.161 0.09,0.019 0.153,0.029 0.188,0.029 h 0.418 l 0.216,0.006 c 0.147,0 0.308,-0.017 0.485,-0.049 0.36,-0.022 0.731,-0.036 1.111,-0.036 0.111,0 0.268,0.006 0.472,0.018 0.541,0.028 0.93,0.044 1.165,0.044 0.475,0 0.923,-0.047 1.345,-0.142 C 2.938,7.029 3.372,6.856 3.818,6.603 4.098,6.441 4.384,6.188 4.676,5.844 4.968,5.497 5.189,5.12 5.341,4.712 5.492,4.305 5.566,3.845 5.566,3.332 5.566,2.875 5.483,2.423 5.316,1.974 5.149,1.523 4.918,1.135 4.62,0.805 4.322,0.475 4.021,0.227 3.714,0.061 3.408,-0.106 2.94,-0.25 2.313,-0.372 2.055,-0.419 1.591,-0.44 0.92,-0.44 c -0.443,0 -0.804,0.009 -1.083,0.034 -0.109,0.012 -0.229,0.018 -0.355,0.018 -0.018,0 -0.041,-0.002 -0.063,-0.006 l -2.4,-0.046 -0.012,0.044 c -0.007,0.02 -0.011,0.042 -0.011,0.064 z"
             style="fill:#231f20;fill-opacity:1;fill-rule:nonzero;stroke:none"
             id="path110" /></g><g
           id="g112"
           transform="translate(71.9111,21.1611)"><path
             d="m 0,0 c 0.418,-0.022 0.895,-0.034 1.43,-0.034 0.303,0 0.572,0.01 0.8,0.028 C 2.192,0.145 2.147,0.286 2.097,0.417 1.843,1.091 1.701,1.461 1.674,1.53 L 1.14,2.869 1.081,2.975 C 1.058,2.928 0.972,2.729 0.823,2.376 0.575,1.774 0.396,1.305 0.286,0.969 0.235,0.817 0.183,0.667 0.129,0.52 0.074,0.37 0.04,0.267 0.025,0.206 0.013,0.146 -0.008,0.085 -0.035,0.023 Z m -2.8,-3.525 c 0.055,0.032 0.104,0.046 0.148,0.046 h 0.133 c 0.029,0 0.076,0.002 0.142,0.006 0.302,0.03 0.48,0.056 0.535,0.083 0.137,0.076 0.255,0.203 0.353,0.388 0.203,0.4 0.43,0.967 0.685,1.698 0.12,0.349 0.198,0.562 0.229,0.635 0.096,0.234 0.191,0.481 0.281,0.74 L 0.257,1.617 C 0.343,1.86 0.55,2.416 0.878,3.286 0.96,3.505 1.06,3.8 1.177,4.168 L 1.36,4.18 1.564,4.174 C 1.733,3.84 1.884,3.479 2.013,3.095 2.083,2.891 2.199,2.585 2.36,2.181 L 3.254,-0.245 3.729,-1.56 C 3.979,-2.307 4.145,-2.767 4.224,-2.938 4.302,-3.107 4.374,-3.222 4.439,-3.275 4.46,-3.292 4.534,-3.314 4.661,-3.348 4.788,-3.379 4.877,-3.401 4.928,-3.418 5.107,-3.467 5.232,-3.509 5.304,-3.543 5.32,-3.585 5.328,-3.616 5.328,-3.64 5.328,-3.658 5.322,-3.688 5.31,-3.726 5.185,-3.729 5.097,-3.73 5.046,-3.73 c -0.2,0 -0.552,0.003 -1.058,0.011 L 3.4,-3.71 2.689,-3.716 c -0.045,0 -0.094,0.001 -0.143,0.005 -0.049,0.003 -0.091,0.004 -0.126,0.004 H 2.291 c -0.043,0.005 -0.082,0.018 -0.118,0.036 0,0.058 0.01,0.11 0.029,0.163 0.046,0.025 0.088,0.038 0.127,0.042 l 0.606,0.042 c 0.158,0.007 0.278,0.029 0.36,0.066 0.022,0.07 0.035,0.125 0.035,0.16 0,0.07 -0.051,0.255 -0.152,0.552 -0.073,0.197 -0.132,0.383 -0.186,0.562 -0.054,0.179 -0.262,0.764 -0.625,1.755 -0.16,0.027 -0.302,0.041 -0.422,0.041 L 0.69,-0.3 0.322,-0.294 c -0.134,0 -0.279,-0.009 -0.439,-0.028 -0.051,-0.117 -0.084,-0.203 -0.099,-0.254 L -0.73,-2.202 c -0.22,-0.618 -0.331,-0.96 -0.331,-1.024 0,-0.035 0.019,-0.092 0.054,-0.175 0.083,-0.025 0.192,-0.045 0.329,-0.067 l 0.8,-0.07 c 0.043,-0.035 0.064,-0.067 0.064,-0.097 0,-0.018 -0.004,-0.05 -0.017,-0.09 -0.176,-0.004 -0.313,-0.005 -0.405,-0.005 -0.314,0 -0.678,0.015 -1.094,0.047 -0.192,0.008 -0.329,0.012 -0.411,0.012 -0.082,0 -0.226,-0.004 -0.43,-0.012 -0.133,-0.006 -0.228,-0.011 -0.287,-0.011 -0.095,0 -0.216,0.006 -0.365,0.017 v 0.036 c 0,0.03 0.008,0.068 0.023,0.116"
             style="fill:#231f20;fill-opacity:1;fill-rule:nonzero;stroke:none"
             id="path114" /></g><g
           id="g116"
           transform="translate(80.459,17.7998)"><path
             d="m 0,0 c 0.299,-0.103 0.6,-0.152 0.906,-0.152 0.396,0 0.783,0.061 1.164,0.184 C 2.45,0.155 2.787,0.329 3.079,0.556 3.371,0.779 3.611,1.034 3.8,1.317 3.987,1.603 4.121,1.856 4.199,2.084 4.308,2.416 4.364,2.851 4.364,3.382 4.364,3.892 4.256,4.406 4.04,4.933 3.892,5.297 3.63,5.644 3.255,5.978 2.881,6.31 2.438,6.553 1.93,6.707 1.42,6.861 0.869,6.938 0.277,6.938 c -0.408,0 -0.71,-0.044 -0.906,-0.133 -0.023,-0.025 -0.047,-0.052 -0.07,-0.082 -0.024,-0.1 -0.035,-0.19 -0.035,-0.272 0,-0.051 0.001,-0.11 0.005,-0.18 0.012,-0.456 0.018,-0.82 0.018,-1.092 L -0.717,3.847 C -0.717,1.889 -0.681,0.8 -0.608,0.578 -0.535,0.357 -0.333,0.164 0,0 m -2.992,-0.244 c 0.144,0.06 0.313,0.101 0.506,0.12 0.278,0.032 0.486,0.1 0.624,0.2 0.104,0.217 0.158,0.767 0.158,1.651 v 0.928 l 0.012,0.561 -0.012,0.41 0.012,0.762 L -1.71,6.3 c 0,0.216 -0.031,0.356 -0.095,0.424 -0.091,0.097 -0.33,0.187 -0.72,0.27 -0.162,0.035 -0.259,0.069 -0.294,0.098 -0.036,0.026 -0.057,0.082 -0.065,0.161 0.09,0.019 0.154,0.029 0.189,0.029 h 0.417 l 0.216,0.006 c 0.147,0 0.308,-0.017 0.485,-0.049 0.36,-0.022 0.731,-0.036 1.112,-0.036 0.11,0 0.267,0.006 0.471,0.018 0.541,0.028 0.929,0.044 1.165,0.044 0.475,0 0.923,-0.047 1.345,-0.142 C 2.938,7.029 3.372,6.856 3.82,6.603 4.099,6.441 4.384,6.188 4.676,5.844 4.969,5.497 5.189,5.12 5.341,4.712 5.492,4.305 5.567,3.845 5.567,3.332 5.567,2.875 5.484,2.423 5.317,1.974 5.151,1.523 4.919,1.135 4.621,0.805 4.322,0.475 4.02,0.227 3.715,0.061 3.408,-0.106 2.94,-0.25 2.313,-0.372 2.056,-0.419 1.591,-0.44 0.92,-0.44 c -0.444,0 -0.804,0.009 -1.082,0.034 -0.111,0.012 -0.229,0.018 -0.354,0.018 -0.019,0 -0.041,-0.002 -0.064,-0.006 l -2.4,-0.046 -0.012,0.044 c -0.008,0.02 -0.012,0.042 -0.012,0.064 z"
             style="fill:#231f20;fill-opacity:1;fill-rule:nonzero;stroke:none"
             id="path118" /></g><g
           id="g120"
           transform="translate(86.8984,17.5459)"><path
             d="m 0,0 c 0.04,0.035 0.073,0.058 0.101,0.064 0.067,0.02 0.18,0.038 0.341,0.048 0.383,0.025 0.619,0.06 0.708,0.107 0.057,0.078 0.083,0.186 0.083,0.329 L 1.228,0.958 1.233,2.45 1.223,3.155 1.228,4.63 1.199,6.305 C 1.195,6.703 1.17,6.929 1.123,6.979 1.052,7.054 0.843,7.098 0.494,7.108 0.346,7.112 0.215,7.124 0.101,7.145 0.05,7.172 0.023,7.206 0.023,7.25 0.023,7.281 0.034,7.318 0.054,7.361 0.089,7.382 0.12,7.392 0.146,7.392 0.202,7.392 0.27,7.39 0.348,7.386 0.579,7.361 0.817,7.35 1.063,7.35 L 1.5,7.361 2.535,7.337 c 0.517,0 0.92,0.009 1.21,0.024 0.29,0.016 0.486,0.025 0.588,0.025 0.09,0 0.313,-0.015 0.67,-0.042 L 5.838,7.35 5.938,7.331 6.426,7.35 6.483,7.319 C 6.505,7.288 6.519,7.256 6.524,7.222 6.524,7.165 6.518,7.081 6.499,6.968 6.481,6.854 6.473,6.783 6.473,6.757 6.473,6.351 6.486,6.005 6.514,5.724 6.51,5.699 6.498,5.685 6.478,5.677 6.436,5.677 6.397,5.683 6.363,5.693 6.32,5.769 6.263,5.898 6.189,6.086 6.118,6.274 6.009,6.491 5.864,6.738 5.766,6.902 5.688,7 5.635,7.031 5.58,7.064 5.467,7.078 5.294,7.078 5.259,7.078 5.081,7.082 4.76,7.091 4.674,7.095 4.59,7.097 4.507,7.097 L 2.833,7.062 H 2.686 C 2.471,7.062 2.342,7.033 2.298,6.979 2.231,6.887 2.198,6.61 2.198,6.153 2.198,6.106 2.208,5.64 2.228,4.748 V 3.936 C 2.271,3.924 2.316,3.917 2.368,3.917 H 2.467 C 2.532,3.917 2.63,3.915 2.758,3.911 2.96,3.903 3.096,3.9 3.166,3.9 c 0.047,0 0.088,10e-4 0.123,0.005 0.419,0.017 0.959,0.025 1.62,0.025 0.206,0.035 0.325,0.076 0.362,0.124 0.058,0.069 0.102,0.254 0.131,0.55 0.03,0.298 0.096,0.466 0.2,0.505 0.05,0 0.097,-0.007 0.141,-0.029 C 5.751,5.05 5.756,5.021 5.756,4.992 5.756,4.966 5.751,4.92 5.743,4.857 5.734,4.712 5.731,4.259 5.731,3.495 5.731,3.292 5.741,3.064 5.761,2.814 5.781,2.564 5.792,2.43 5.792,2.409 5.792,2.374 5.786,2.327 5.772,2.27 5.742,2.252 5.717,2.244 5.698,2.244 H 5.656 C 5.594,2.354 5.533,2.524 5.475,2.756 5.373,3.15 5.267,3.397 5.155,3.497 5.044,3.598 4.863,3.646 4.613,3.646 4.559,3.646 4.459,3.645 4.313,3.639 4.17,3.633 3.955,3.63 3.67,3.63 H 3.288 C 2.745,3.63 2.39,3.617 2.222,3.595 L 2.216,3.399 2.222,2.317 2.216,1.637 2.222,0.974 C 2.226,0.572 2.251,0.342 2.298,0.278 2.364,0.192 2.51,0.149 2.731,0.149 l 0.361,0.006 c 0.031,0 0.154,-0.004 0.367,-0.009 0.214,-0.005 0.477,-0.008 0.791,-0.008 0.757,0 1.26,0.031 1.511,0.096 0.251,0.067 0.458,0.179 0.62,0.344 0.163,0.164 0.367,0.521 0.614,1.065 0.074,0.161 0.148,0.241 0.222,0.241 0.034,0 0.073,-0.017 0.115,-0.048 C 7.222,1.446 7.158,1.191 7.143,1.069 7.101,0.794 7.075,0.514 7.066,0.228 c 0,-0.13 -0.03,-0.24 -0.092,-0.326 H 6.844 L 5.188,-0.115 4.447,-0.104 2.681,-0.126 H 1.962 c -0.091,0 -0.175,-0.002 -0.254,-0.006 -0.706,-0.028 -1.227,-0.044 -1.562,-0.044 -0.057,0 -0.097,0.01 -0.119,0.03 -0.022,0.019 -0.033,0.048 -0.033,0.087 z"
             style="fill:#231f20;fill-opacity:1;fill-rule:nonzero;stroke:none"
             id="path122" /></g></g></g></g></svg>
